<svg width="34" height="34" viewBox="0 0 34 34" fill="none" xmlns="http://www.w3.org/2000/svg">
<mask id="mask0_116_789" style="mask-type:alpha" maskUnits="userSpaceOnUse" x="0" y="0" width="34" height="34">
<rect width="34" height="34" fill="#D9D9D9"/>
</mask>
<g mask="url(#mask0_116_789)">
<path d="M21.2502 26.9167V25.5H18.4168C17.6377 25.5 16.9706 25.2226 16.4158 24.6677C15.8609 24.1128 15.5835 23.4458 15.5835 22.6667V11.3333H12.7502V12.75C12.7502 13.5292 12.4727 14.1962 11.9179 14.751C11.363 15.3059 10.696 15.5833 9.91683 15.5833H5.66683C4.88766 15.5833 4.22065 15.3059 3.66579 14.751C3.11093 14.1962 2.8335 13.5292 2.8335 12.75V7.08333C2.8335 6.30417 3.11093 5.63715 3.66579 5.08229C4.22065 4.52743 4.88766 4.25 5.66683 4.25H9.91683C10.696 4.25 11.363 4.52743 11.9179 5.08229C12.4727 5.63715 12.7502 6.30417 12.7502 7.08333V8.5H21.2502V7.08333C21.2502 6.30417 21.5276 5.63715 22.0825 5.08229C22.6373 4.52743 23.3043 4.25 24.0835 4.25H28.3335C29.1127 4.25 29.7797 4.52743 30.3345 5.08229C30.8894 5.63715 31.1668 6.30417 31.1668 7.08333V12.75C31.1668 13.5292 30.8894 14.1962 30.3345 14.751C29.7797 15.3059 29.1127 15.5833 28.3335 15.5833H24.0835C23.3043 15.5833 22.6373 15.3059 22.0825 14.751C21.5276 14.1962 21.2502 13.5292 21.2502 12.75V11.3333H18.4168V22.6667H21.2502V21.25C21.2502 20.4708 21.5276 19.8038 22.0825 19.249C22.6373 18.6941 23.3043 18.4167 24.0835 18.4167H28.3335C29.1127 18.4167 29.7797 18.6941 30.3345 19.249C30.8894 19.8038 31.1668 20.4708 31.1668 21.25V26.9167C31.1668 27.6958 30.8894 28.3628 30.3345 28.9177C29.7797 29.4726 29.1127 29.75 28.3335 29.75H24.0835C23.3043 29.75 22.6373 29.4726 22.0825 28.9177C21.5276 28.3628 21.2502 27.6958 21.2502 26.9167ZM24.0835 12.75H28.3335V7.08333H24.0835V12.75ZM24.0835 26.9167H28.3335V21.25H24.0835V26.9167ZM5.66683 12.75H9.91683V7.08333H5.66683V12.75Z" fill="white"/>
</g>
</svg>
