<svg width="37" height="37" viewBox="0 0 37 37" fill="none" xmlns="http://www.w3.org/2000/svg">
<mask id="mask0_116_837" style="mask-type:alpha" maskUnits="userSpaceOnUse" x="0" y="0" width="37" height="37">
<rect y="-6.10352e-05" width="37" height="37" fill="#D9D9D9"/>
</mask>
<g mask="url(#mask0_116_837)">
<path d="M30.525 19.926L6.78333 29.9468C6.26944 30.1524 5.78125 30.1074 5.31875 29.8119C4.85625 29.5164 4.625 29.086 4.625 28.5208V8.4791C4.625 7.91383 4.85625 7.48344 5.31875 7.18796C5.78125 6.89247 6.26944 6.84751 6.78333 7.05306L30.525 17.0739C31.1674 17.3565 31.4885 17.8319 31.4885 18.4999C31.4885 19.168 31.1674 19.6433 30.525 19.926ZM7.70833 26.2083L25.9771 18.4999L7.70833 10.7916V16.1874L16.9583 18.4999L7.70833 20.8124V26.2083Z" fill="white"/>
</g>
</svg>
