<svg width="38" height="38" viewBox="0 0 38 38" fill="none" xmlns="http://www.w3.org/2000/svg">
<mask id="mask0_116_813" style="mask-type:alpha" maskUnits="userSpaceOnUse" x="0" y="0" width="38" height="38">
<rect x="0.725586" y="0.1474" width="37" height="37" fill="#D9D9D9"/>
</mask>
<g mask="url(#mask0_116_813)">
<path d="M8.74225 32.5224C7.79156 32.5224 6.98861 32.1948 6.3334 31.5396C5.67819 30.8844 5.35059 30.0815 5.35059 29.1308V8.00992C5.35059 7.26478 5.69746 6.74447 6.39121 6.44898C7.08496 6.1535 7.68878 6.2627 8.20267 6.77659L11.6714 10.2453L9.59017 12.3266L10.6693 13.4058L12.7506 11.3245L16.7589 15.3328L14.6777 17.4141L15.7568 18.4933L17.8381 16.412L21.8464 20.4203L19.7652 22.5016L20.8443 23.5808L22.9256 21.4995L26.9339 25.5078L24.8527 27.5891L25.9318 28.6683L28.0131 26.587L31.0964 29.6703C31.6103 30.1842 31.7195 30.7881 31.424 31.4818C31.1285 32.1756 30.6082 32.5224 29.8631 32.5224H8.74225ZM9.97559 27.8974H22.7714L9.97559 15.1016V27.8974Z" fill="white"/>
</g>
</svg>
