<svg width="37" height="38" viewBox="0 0 37 38" fill="none" xmlns="http://www.w3.org/2000/svg">
<mask id="mask0_116_773" style="mask-type:alpha" maskUnits="userSpaceOnUse" x="0" y="0" width="37" height="38">
<rect y="0.299988" width="37" height="37" fill="#D9D9D9"/>
</mask>
<g mask="url(#mask0_116_773)">
<path d="M29.2917 29.5917V24.9667H7.70833V29.5917H29.2917ZM29.2917 21.8833V15.7167H7.70833V21.8833H29.2917ZM29.2917 12.6333V8.00832H7.70833V12.6333H29.2917ZM7.70833 32.675C6.86042 32.675 6.13455 32.3731 5.53073 31.7693C4.92691 31.1654 4.625 30.4396 4.625 29.5917V8.00832C4.625 7.1604 4.92691 6.43454 5.53073 5.83072C6.13455 5.2269 6.86042 4.92499 7.70833 4.92499H29.2917C30.1396 4.92499 30.8655 5.2269 31.4693 5.83072C32.0731 6.43454 32.375 7.1604 32.375 8.00832V29.5917C32.375 30.4396 32.0731 31.1654 31.4693 31.7693C30.8655 32.3731 30.1396 32.675 29.2917 32.675H7.70833Z" fill="white"/>
</g>
</svg>
