<svg width="37" height="37" viewBox="0 0 37 37" fill="none" xmlns="http://www.w3.org/2000/svg">
<mask id="mask0_116_862" style="mask-type:alpha" maskUnits="userSpaceOnUse" x="0" y="0" width="37" height="37">
<rect y="-6.10352e-05" width="37" height="37" fill="#D9D9D9"/>
</mask>
<g mask="url(#mask0_116_862)">
<path d="M12.3333 26.2083C11.8965 26.2083 11.5304 26.0605 11.2349 25.765C10.9394 25.4696 10.7917 25.1034 10.7917 24.6666C10.7917 24.2298 10.9394 23.8637 11.2349 23.5682C11.5304 23.2727 11.8965 23.1249 12.3333 23.1249H18.5C18.1403 22.6881 17.8512 22.2128 17.6328 21.6989C17.4144 21.185 17.241 20.6326 17.1125 20.0416H9.25C8.81319 20.0416 8.44705 19.8939 8.15156 19.5984C7.85608 19.3029 7.70833 18.9367 7.70833 18.4999C7.70833 18.0631 7.85608 17.697 8.15156 17.4015C8.44705 17.106 8.81319 16.9583 9.25 16.9583H17.1125C17.241 16.3673 17.4144 15.8149 17.6328 15.301C17.8512 14.7871 18.1403 14.3117 18.5 13.8749H12.3333C11.8965 13.8749 11.5304 13.7272 11.2349 13.4317C10.9394 13.1362 10.7917 12.7701 10.7917 12.3333C10.7917 11.8965 10.9394 11.5303 11.2349 11.2348C11.5304 10.9393 11.8965 10.7916 12.3333 10.7916H24.6667C26.7993 10.7916 28.6172 11.5432 30.1203 13.0463C31.6234 14.5494 32.375 16.3673 32.375 18.4999C32.375 20.6326 31.6234 22.4505 30.1203 23.9536C28.6172 25.4567 26.7993 26.2083 24.6667 26.2083H12.3333ZM24.6667 23.1249C25.9514 23.1249 27.0434 22.6753 27.9427 21.776C28.842 20.8767 29.2917 19.7847 29.2917 18.4999C29.2917 17.2152 28.842 16.1232 27.9427 15.2239C27.0434 14.3246 25.9514 13.8749 24.6667 13.8749C23.3819 13.8749 22.2899 14.3246 21.3906 15.2239C20.4913 16.1232 20.0417 17.2152 20.0417 18.4999C20.0417 19.7847 20.4913 20.8767 21.3906 21.776C22.2899 22.6753 23.3819 23.1249 24.6667 23.1249ZM6.16667 26.2083C5.72986 26.2083 5.36372 26.0605 5.06823 25.765C4.77274 25.4696 4.625 25.1034 4.625 24.6666C4.625 24.2298 4.77274 23.8637 5.06823 23.5682C5.36372 23.2727 5.72986 23.1249 6.16667 23.1249H7.70833C8.14514 23.1249 8.51128 23.2727 8.80677 23.5682C9.10226 23.8637 9.25 24.2298 9.25 24.6666C9.25 25.1034 9.10226 25.4696 8.80677 25.765C8.51128 26.0605 8.14514 26.2083 7.70833 26.2083H6.16667Z" fill="white"/>
</g>
</svg>
