<svg width="37" height="37" viewBox="0 0 37 37" fill="none" xmlns="http://www.w3.org/2000/svg">
<mask id="mask0_116_890" style="mask-type:alpha" maskUnits="userSpaceOnUse" x="0" y="-1" width="37" height="38">
<rect y="-0.00012207" width="37" height="37" fill="#D9D9D9"/>
</mask>
<g mask="url(#mask0_116_890)">
<path d="M18.4998 24.0113C18.2943 24.0113 18.1016 23.9792 17.9217 23.915C17.7419 23.8507 17.5748 23.7416 17.4207 23.5874L11.8707 18.0374C11.5623 17.729 11.4146 17.3693 11.4274 16.9582C11.4403 16.5471 11.588 16.1874 11.8707 15.879C12.179 15.5707 12.5451 15.4101 12.9691 15.3973C13.3931 15.3844 13.7592 15.5322 14.0675 15.8405L16.9582 18.7311V7.70822C16.9582 7.27141 17.1059 6.90526 17.4014 6.60978C17.6969 6.31429 18.063 6.16655 18.4998 6.16655C18.9366 6.16655 19.3028 6.31429 19.5983 6.60978C19.8938 6.90526 20.0415 7.27141 20.0415 7.70822V18.7311L22.9321 15.8405C23.2405 15.5322 23.6066 15.3844 24.0306 15.3973C24.4545 15.4101 24.8207 15.5707 25.129 15.879C25.4116 16.1874 25.5594 16.5471 25.5722 16.9582C25.5851 17.3693 25.4373 17.729 25.129 18.0374L19.579 23.5874C19.4248 23.7416 19.2578 23.8507 19.078 23.915C18.8981 23.9792 18.7054 24.0113 18.4998 24.0113ZM9.24984 30.8332C8.40192 30.8332 7.67605 30.5313 7.07223 29.9275C6.46841 29.3237 6.1665 28.5978 6.1665 27.7499V24.6665C6.1665 24.2297 6.31425 23.8636 6.60973 23.5681C6.90522 23.2726 7.27137 23.1249 7.70817 23.1249C8.14498 23.1249 8.51112 23.2726 8.80661 23.5681C9.10209 23.8636 9.24984 24.2297 9.24984 24.6665V27.7499H27.7498V24.6665C27.7498 24.2297 27.8976 23.8636 28.1931 23.5681C28.4886 23.2726 28.8547 23.1249 29.2915 23.1249C29.7283 23.1249 30.0945 23.2726 30.3899 23.5681C30.6854 23.8636 30.8332 24.2297 30.8332 24.6665V27.7499C30.8332 28.5978 30.5313 29.3237 29.9274 29.9275C29.3236 30.5313 28.5978 30.8332 27.7498 30.8332H9.24984Z" fill="white"/>
</g>
</svg>
