<svg width="37" height="37" viewBox="0 0 37 37" fill="none" xmlns="http://www.w3.org/2000/svg">
<mask id="mask0_80_25749" style="mask-type:alpha" maskUnits="userSpaceOnUse" x="0" y="0" width="37" height="37">
<rect width="37" height="37" fill="#D9D9D9"/>
</mask>
<g mask="url(#mask0_80_25749)">
<path d="M32.75 18.5L26.0438 27.9813C25.7611 28.3924 25.395 28.7136 24.9453 28.9448C24.4957 29.1761 24.0139 29.2917 23.5 29.2917H8.08333C7.23542 29.2917 6.50955 28.9898 5.90573 28.386C5.30191 27.7822 5 27.0563 5 26.2084V10.7917C5 9.94379 5.30191 9.21792 5.90573 8.6141C6.50955 8.01028 7.23542 7.70837 8.08333 7.70837H23.5C24.0139 7.70837 24.4957 7.824 24.9453 8.05525C25.395 8.2865 25.7611 8.60768 26.0438 9.01879L32.75 18.5ZM28.9729 18.5L23.5 10.7917H8.08333V26.2084H23.5L28.9729 18.5Z" fill="white"/>
</g>
</svg>
